<?xml version="1.0" encoding="UTF-8"?>
<svg width="260px" height="141px" viewBox="0 0 260 141" version="1.1" xmlns="http://www.w3.org/2000/svg" xmlns:xlink="http://www.w3.org/1999/xlink">
    <title>404</title>
    <defs>
        <linearGradient x1="50.2564103%" y1="-0.387755102%" x2="50.2564103%" y2="49.6122449%" id="linearGradient-1">
            <stop stop-color="#A9A9A9" stop-opacity="0.15" offset="0%"></stop>
            <stop stop-color="#A9A9A9" stop-opacity="0" offset="100%"></stop>
        </linearGradient>
        <radialGradient cx="49.8077598%" cy="-145.318249%" fx="49.8077598%" fy="-145.318249%" r="338.154303%" gradientTransform="translate(0.498078,-1.453182),scale(0.147742,1.000000),translate(-0.498078,1.453182)" id="radialGradient-2">
            <stop stop-color="#808184" offset="0%"></stop>
            <stop stop-color="#9A9A9D" offset="7%"></stop>
            <stop stop-color="#B9B9BB" offset="17%"></stop>
            <stop stop-color="#D2D3D4" offset="28%"></stop>
            <stop stop-color="#E6E7E7" offset="40%"></stop>
            <stop stop-color="#F4F4F5" offset="53%"></stop>
            <stop stop-color="#FDFDFD" offset="70%"></stop>
            <stop stop-color="#FFFFFF" offset="99%"></stop>
        </radialGradient>
        <radialGradient cx="55.2174608%" cy="50%" fx="55.2174608%" fy="50%" r="330.988904%" gradientTransform="translate(0.552175,0.500000),scale(0.147742,1.000000),scale(1.000000,0.132686),translate(-0.552175,-0.500000)" id="radialGradient-3">
            <stop stop-color="#808184" offset="0%"></stop>
            <stop stop-color="#FFFFFF" stop-opacity="0" offset="100%"></stop>
        </radialGradient>
        <radialGradient cx="85.2148181%" cy="63880.1187%" fx="85.2148181%" fy="63880.1187%" r="289.020772%" gradientTransform="translate(0.852148,638.801187),scale(0.147742,1.000000),translate(-0.852148,-638.801187)" id="radialGradient-4">
            <stop stop-color="#808184" offset="0%"></stop>
            <stop stop-color="#9A9A9D" offset="7%"></stop>
            <stop stop-color="#B9B9BB" offset="17%"></stop>
            <stop stop-color="#D2D3D4" offset="28%"></stop>
            <stop stop-color="#E6E7E7" offset="40%"></stop>
            <stop stop-color="#F4F4F5" offset="53%"></stop>
            <stop stop-color="#FDFDFD" offset="70%"></stop>
            <stop stop-color="#FFFFFF" offset="99%"></stop>
        </radialGradient>
        <radialGradient cx="55.2174608%" cy="50%" fx="55.2174608%" fy="50%" r="293.534896%" gradientTransform="translate(0.552175,0.500000),scale(0.166594,1.000000),scale(1.000000,0.132686),translate(-0.552175,-0.500000)" id="radialGradient-5">
            <stop stop-color="#808184" offset="0%"></stop>
            <stop stop-color="#FFFFFF" stop-opacity="0" offset="100%"></stop>
        </radialGradient>
        <radialGradient cx="55.2174608%" cy="50%" fx="55.2174608%" fy="50%" r="876.293677%" gradientTransform="translate(0.552175,0.500000),scale(0.055804,1.000000),scale(1.000000,0.042903),translate(-0.552175,-0.500000)" id="radialGradient-6">
            <stop stop-color="#808184" offset="0%"></stop>
            <stop stop-color="#FFFFFF" stop-opacity="0" offset="100%"></stop>
        </radialGradient>
        <radialGradient cx="55.2174608%" cy="50%" fx="55.2174608%" fy="50%" r="463.616637%" gradientTransform="translate(0.552175,0.500000),scale(0.105477,1.000000),scale(1.000000,0.132686),translate(-0.552175,-0.500000)" id="radialGradient-7">
            <stop stop-color="#808184" offset="0%"></stop>
            <stop stop-color="#FFFFFF" stop-opacity="0" offset="100%"></stop>
        </radialGradient>
        <linearGradient x1="0%" y1="50.5%" x2="100%" y2="50.5%" id="linearGradient-8">
            <stop stop-color="#E5E6E7" offset="0%"></stop>
            <stop stop-color="#929497" offset="100%"></stop>
        </linearGradient>
        <linearGradient x1="0%" y1="50%" x2="100%" y2="50%" id="linearGradient-9">
            <stop stop-color="#EEEEEE" offset="0%"></stop>
            <stop stop-color="#DDDDDD" offset="3%"></stop>
            <stop stop-color="#D8D8D8" offset="100%"></stop>
        </linearGradient>
        <linearGradient x1="0%" y1="50.0308833%" x2="100%" y2="50.0308833%" id="linearGradient-10">
            <stop stop-color="#EEEEEE" offset="0%"></stop>
            <stop stop-color="#DDDDDD" offset="3%"></stop>
            <stop stop-color="#D8D8D8" offset="100%"></stop>
        </linearGradient>
        <linearGradient x1="0%" y1="50.5%" x2="100%" y2="50.5%" id="linearGradient-11">
            <stop stop-color="#E5E6E7" offset="0%"></stop>
            <stop stop-color="#929497" offset="100%"></stop>
        </linearGradient>
        <linearGradient x1="0%" y1="50.0262467%" x2="100%" y2="50.0262467%" id="linearGradient-12">
            <stop stop-color="#EEEEEE" offset="0%"></stop>
            <stop stop-color="#D8D8D8" offset="100%"></stop>
        </linearGradient>
        <linearGradient x1="0%" y1="50.0099147%" x2="100%" y2="50.0099147%" id="linearGradient-13">
            <stop stop-color="#EEEEEE" offset="0%"></stop>
            <stop stop-color="#D8D8D8" offset="100%"></stop>
        </linearGradient>
        <linearGradient x1="0%" y1="50%" x2="100%" y2="50%" id="linearGradient-14">
            <stop stop-color="#DEDEDE" offset="0%"></stop>
            <stop stop-color="#FDFDFD" offset="100%"></stop>
        </linearGradient>
        <linearGradient x1="47.5734355%" y1="49.9321837%" x2="62.8863882%" y2="45.1656656%" id="linearGradient-15">
            <stop stop-color="#FFFFFF" offset="0%"></stop>
            <stop stop-color="#F4F4F4" offset="8%"></stop>
            <stop stop-color="#BFC0C2" offset="51%"></stop>
            <stop stop-color="#9EA0A3" offset="83%"></stop>
            <stop stop-color="#929497" offset="100%"></stop>
        </linearGradient>
        <linearGradient x1="0%" y1="50.4723913%" x2="100.057307%" y2="50.4723913%" id="linearGradient-16">
            <stop stop-color="#EEEEEE" offset="0%"></stop>
            <stop stop-color="#DDDDDD" offset="4.89504486%"></stop>
            <stop stop-color="#D8D8D8" offset="100%"></stop>
        </linearGradient>
        <linearGradient x1="0%" y1="50.4723913%" x2="100.057307%" y2="50.4723913%" id="linearGradient-17">
            <stop stop-color="#EEEEEE" offset="0%"></stop>
            <stop stop-color="#DDDDDD" offset="4.89504486%"></stop>
            <stop stop-color="#D8D8D8" offset="100%"></stop>
        </linearGradient>
        <linearGradient x1="0.471698113%" y1="50.7276507%" x2="101.572327%" y2="50.7276507%" id="linearGradient-18">
            <stop stop-color="#E5E6E7" offset="0%"></stop>
            <stop stop-color="#929497" offset="100%"></stop>
        </linearGradient>
        <linearGradient x1="0%" y1="50.2624672%" x2="100%" y2="50.2624672%" id="linearGradient-19">
            <stop stop-color="#E5E6E7" offset="0%"></stop>
            <stop stop-color="#929497" offset="100%"></stop>
        </linearGradient>
        <linearGradient x1="-0.387888767%" y1="49.6718266%" x2="99.9977241%" y2="49.6718266%" id="linearGradient-20">
            <stop stop-color="#EEEEEE" offset="0%"></stop>
            <stop stop-color="#DDDDDD" offset="3%"></stop>
            <stop stop-color="#D8D8D8" offset="100%"></stop>
        </linearGradient>
        <linearGradient x1="0.0541493737%" y1="50.0121177%" x2="99.9598883%" y2="50.0121177%" id="linearGradient-21">
            <stop stop-color="#DEDEDE" offset="0%"></stop>
            <stop stop-color="#FDFDFD" offset="100%"></stop>
        </linearGradient>
        <linearGradient x1="51.5833982%" y1="52.2354174%" x2="79.8807622%" y2="81.7324485%" id="linearGradient-22">
            <stop stop-color="#FFFFFF" offset="0%"></stop>
            <stop stop-color="#DBDBDC" offset="26%"></stop>
            <stop stop-color="#B3B5B7" offset="58%"></stop>
            <stop stop-color="#9B9DA0" offset="84%"></stop>
            <stop stop-color="#929497" offset="100%"></stop>
        </linearGradient>
        <linearGradient x1="104.173717%" y1="49.4767028%" x2="16.8640722%" y2="50.3197044%" id="linearGradient-23">
            <stop stop-color="#E5E6E7" offset="0%"></stop>
            <stop stop-color="#929497" offset="100%"></stop>
        </linearGradient>
        <linearGradient x1="70.1215144%" y1="-3.53524912%" x2="26.4944681%" y2="117.118048%" id="linearGradient-24">
            <stop stop-color="#EEEEEE" offset="0%"></stop>
            <stop stop-color="#DDDDDD" offset="3%"></stop>
            <stop stop-color="#D8D8D8" offset="100%"></stop>
        </linearGradient>
        <linearGradient x1="55.7262603%" y1="108.940043%" x2="44.3407135%" y2="-8.13704497%" id="linearGradient-25">
            <stop stop-color="#EEEEEE" offset="0%"></stop>
            <stop stop-color="#DDDDDD" offset="3%"></stop>
            <stop stop-color="#D8D8D8" offset="100%"></stop>
        </linearGradient>
        <linearGradient x1="0%" y1="50.0305064%" x2="100%" y2="50.0305064%" id="linearGradient-26">
            <stop stop-color="#EEEEEE" offset="0%"></stop>
            <stop stop-color="#DDDDDD" offset="3%"></stop>
            <stop stop-color="#D8D8D8" offset="100%"></stop>
        </linearGradient>
        <linearGradient x1="0%" y1="50.0242601%" x2="100%" y2="50.0242601%" id="linearGradient-27">
            <stop stop-color="#EEEEEE" offset="0%"></stop>
            <stop stop-color="#DDDDDD" offset="3%"></stop>
            <stop stop-color="#D8D8D8" offset="100%"></stop>
        </linearGradient>
        <linearGradient x1="0%" y1="50.5%" x2="100%" y2="50.5%" id="linearGradient-28">
            <stop stop-color="#EEEEEE" offset="0%"></stop>
            <stop stop-color="#DDDDDD" offset="3%"></stop>
            <stop stop-color="#D8D8D8" offset="100%"></stop>
        </linearGradient>
        <linearGradient x1="0%" y1="50%" x2="100%" y2="50%" id="linearGradient-29">
            <stop stop-color="#DEDEDE" offset="0%"></stop>
            <stop stop-color="#FDFDFD" offset="100%"></stop>
        </linearGradient>
        <linearGradient x1="100%" y1="50.0099384%" x2="0%" y2="50.0099384%" id="linearGradient-30">
            <stop stop-color="#3D4757" offset="0%"></stop>
            <stop stop-color="#3D4757" offset="100%"></stop>
        </linearGradient>
        <linearGradient x1="100%" y1="50.0099384%" x2="0%" y2="50.0099384%" id="linearGradient-31">
            <stop stop-color="#3D4757" offset="0%"></stop>
            <stop stop-color="#3D4757" offset="100%"></stop>
        </linearGradient>
        <linearGradient x1="0%" y1="49.9972866%" x2="99.94206%" y2="49.9972866%" id="linearGradient-32">
            <stop stop-color="#1F1E4A" offset="0%"></stop>
            <stop stop-color="#424677" offset="100%"></stop>
        </linearGradient>
        <linearGradient x1="0.25003641%" y1="50.3579952%" x2="100.014564%" y2="50.3579952%" id="linearGradient-33">
            <stop stop-color="#1F1E4A" offset="0%"></stop>
            <stop stop-color="#424677" offset="100%"></stop>
        </linearGradient>
        <linearGradient x1="100%" y1="50.0099384%" x2="0%" y2="50.0099384%" id="linearGradient-34">
            <stop stop-color="#3D4757" offset="0%"></stop>
            <stop stop-color="#3D4757" offset="100%"></stop>
        </linearGradient>
        <linearGradient x1="-0.0227814667%" y1="50.0127432%" x2="100%" y2="50.0127432%" id="linearGradient-35">
            <stop stop-color="#494983" offset="0%"></stop>
            <stop stop-color="#272557" offset="100%"></stop>
        </linearGradient>
        <linearGradient x1="0.459630476%" y1="50%" x2="100.429259%" y2="50%" id="linearGradient-36">
            <stop stop-color="#FFF7ED" offset="0%"></stop>
            <stop stop-color="#FFEBD6" offset="100%"></stop>
        </linearGradient>
        <linearGradient x1="-0.248772243%" y1="49.3277733%" x2="100%" y2="49.3277733%" id="linearGradient-37">
            <stop stop-color="#107CEE" stop-opacity="0.55" offset="0%"></stop>
            <stop stop-color="#78BAFF" offset="100%"></stop>
        </linearGradient>
        <linearGradient x1="-0.0328407225%" y1="49.9537932%" x2="100.131363%" y2="49.9537932%" id="linearGradient-38">
            <stop stop-color="#ADB5C0" offset="0%"></stop>
            <stop stop-color="#ADB5C0" offset="100%"></stop>
        </linearGradient>
        <radialGradient cx="36.1240471%" cy="35.8281358%" fx="36.1240471%" fy="35.8281358%" r="94.5945946%" id="radialGradient-39">
            <stop stop-color="#FFFFFF" offset="0%"></stop>
            <stop stop-color="#C2C2C2" offset="100%"></stop>
        </radialGradient>
        <radialGradient cx="69.15375%" cy="36.0625%" fx="69.15375%" fy="36.0625%" r="94%" id="radialGradient-40">
            <stop stop-color="#FFFFFF" offset="0%"></stop>
            <stop stop-color="#D8D8D8" offset="100%"></stop>
        </radialGradient>
    </defs>
    <g id="页面-1" stroke="none" stroke-width="1" fill="none" fill-rule="evenodd">
        <g id="缺省图" transform="translate(-1356.000000, -123.000000)">
            <g id="404" transform="translate(1356.000000, 123.000000)">
                <g>
                    <ellipse id="背景" fill="url(#linearGradient-1)" fill-rule="nonzero" cx="129.998062" cy="106.905073" rx="129.998062" ry="65.3323594"></ellipse>
                    <ellipse id="椭圆形" fill="url(#radialGradient-2)" fill-rule="nonzero" style="mix-blend-mode: multiply;" cx="93.778602" cy="56.9124849" rx="30.41288" ry="4.49326635"></ellipse>
                    <ellipse id="椭圆形" fill="url(#radialGradient-3)" fill-rule="nonzero" opacity="0.36" style="mix-blend-mode: multiply;" cx="85.3120615" cy="57.172481" rx="30.41288" ry="4.49326635"></ellipse>
                    <ellipse id="椭圆形" fill="url(#radialGradient-4)" fill-rule="nonzero" style="mix-blend-mode: multiply;" cx="174.077405" cy="58.1457999" rx="30.41288" ry="4.49326635"></ellipse>
                    <ellipse id="椭圆形" fill="url(#radialGradient-5)" fill-rule="nonzero" opacity="0.36" style="mix-blend-mode: multiply;" cx="177.150692" cy="58.8191231" rx="30.41288" ry="5.06659114"></ellipse>
                    <ellipse id="椭圆形" fill="url(#radialGradient-6)" fill-rule="nonzero" opacity="0.183032924" style="mix-blend-mode: multiply;" cx="131.871367" cy="57.6524739" rx="90.7919798" ry="5.06659114"></ellipse>
                    <ellipse id="椭圆形" fill="url(#radialGradient-7)" fill-rule="nonzero" opacity="0.36" style="mix-blend-mode: multiply;" cx="126.35145" cy="56.925818" rx="42.5993649" ry="4.49326635"></ellipse>
                    <g id="编组" transform="translate(57.999135, 0.666657)" fill-rule="nonzero">
                        <polygon id="路径" fill="url(#linearGradient-8)" points="47.6259567 32.399517 36.266126 32.0928549 41.6727121 32.0728552 53.4258702 32.3795173"></polygon>
                        <polygon id="路径" fill="url(#linearGradient-9)" points="31.999523 45.6526528 31.999523 56.525824 21.7263428 54.2858574 21.7263428 44.2860065"></polygon>
                        <polygon id="路径" fill="url(#linearGradient-10)" points="31.999523 32.4595161 21.7263428 32.1395209 21.7263428 22.2130022 31.999523 21.6663437"></polygon>
                        <polygon id="路径" fill="url(#linearGradient-11)" points="26.8662662 32.4795158 16.9597472 32.1595206 21.7263428 32.1395209 31.999523 32.4595161"></polygon>
                        <polygon id="路径" fill="url(#linearGradient-12)" points="9.01986554 46.0393137 0.406660604 44.6060017 0.406660604 33.339503 9.01986554 33.7728299"></polygon>
                        <polygon id="路径" fill="url(#linearGradient-13)" points="9.01986554 33.7728299 0.406660604 33.339503 13.3464677 2.43329706 22.9796574 0.153331048"></polygon>
                        <polygon id="路径" fill="url(#linearGradient-14)" points="53.4258702 32.3795173 53.4258702 45.2993247 47.6259567 45.3993232 47.6259567 56.0991637 45.6193199 56.1524962 31.999523 56.525824 31.999523 45.6526528 21.7263428 45.8259835 9.01986554 46.0393137 9.01986554 33.7728299 22.9796574 0.153331048 39.3927461 0.599991056 26.8595996 32.4795158 31.999523 32.4661827 31.999523 21.6663437 43.4193527 21.7463425 47.6259567 21.7730088 47.6259567 32.399517"></polygon>
                    </g>
                    <path d="M111.425006,33.046174 L111.425006,45.9993143 L105.625092,46.0993128 L105.625092,56.7991533 L103.625122,56.8524858 C99.5150664,45.8516261 98.7496557,33.8810675 101.425155,22.446332 L105.631759,22.446332 L105.631759,33.0661737 L111.425006,33.046174 Z" id="路径" fill="url(#linearGradient-15)" fill-rule="nonzero" style="mix-blend-mode: multiply;"></path>
                    <g id="编组" transform="translate(104.665106, 0.000000)" fill-rule="nonzero">
                        <path d="M29.0995662,43.8526796 L28.9129023,43.8526796 L28.8729029,43.8526796 L28.6795725,43.8526796 L28.439576,43.8526796 C28.0200367,43.8573293 27.6028316,43.7896744 27.2062611,43.6526826 C27.0229373,43.5881922 26.8465095,43.5055615 26.6796023,43.4060196 C26.5081243,43.3046931 26.3473117,43.1863171 26.1996094,43.0526915 C26.0568678,42.9240596 25.9252875,42.7835587 25.806282,42.6326978 L25.7262832,42.5260327 C25.6129515,42.3727017 25.5062864,42.212704 25.3996214,42.0393733 L25.3996214,42.0060405 C25.2996228,41.8193766 25.1996243,41.612713 25.1062924,41.3927163 C25.1062924,41.3393837 25.0596264,41.2927178 25.0396267,41.2393852 C24.9529613,41.0127219 24.866296,40.7793921 24.7862972,40.519396 C24.7862972,40.519396 24.7862972,40.4660634 24.7862972,40.4393971 C24.7129649,40.1927342 24.6462993,39.932738 24.5863001,39.6660753 C24.567631,39.6069269 24.5520546,39.5468465 24.5396342,39.486078 C24.4796351,39.1994156 24.419636,38.8994201 24.3663034,38.5794249 C24.3663034,38.4527601 24.326304,38.3260953 24.3063043,38.1994305 C24.2663049,37.9594341 24.2329721,37.7127711 24.1996392,37.452775 C24.1996392,37.3061105 24.1663064,37.1461129 24.1463067,36.9927819 C24.1463067,36.7394523 24.0929742,36.4727896 24.0663079,36.2061269 C24.0396416,35.9394642 24.0263085,35.7461338 24.0063088,35.5061374 C24.0063088,35.4461383 24.0063088,35.3928057 24.0063088,35.3328066 C24.0063088,34.9661454 23.9596428,34.5861511 23.9396431,34.1994902 C23.9396431,34.1128248 23.9396431,34.0261594 23.9396431,33.9328275 C23.9396431,33.6661648 23.9396431,33.3928355 23.9063103,33.1128397 C23.9063103,33.0395075 23.9063103,32.9661752 23.9063103,32.892843 C23.9063103,32.5461815 23.9063103,32.1861868 23.8729774,31.8195256 L23.8729774,31.5395298 C23.8729774,31.2462009 23.8729774,30.9462053 23.8729774,30.6395432 C23.8729774,30.5262116 23.8729774,30.4195465 23.8729774,30.3062149 C23.8729774,29.9062208 23.8729774,29.5062268 23.8729774,29.0862331 C23.8729774,28.6662393 23.8729774,28.1729133 23.8729774,27.7529196 C23.8729774,27.6462545 23.8729774,27.546256 23.8729774,27.4395909 C23.8729774,27.0129306 23.8729774,26.5929369 23.8729774,26.1862763 L23.8729774,26.0396118 C23.8729774,25.666284 23.8729774,25.312956 23.8729774,24.9662945 C23.8729774,24.8796291 23.8729774,24.7929637 23.8729774,24.7129649 C23.8729774,24.3396372 23.9063103,23.972976 23.92631,23.6196479 C23.92631,23.5463156 23.92631,23.4729834 23.92631,23.3996512 C23.92631,23.1596547 23.92631,22.9263249 23.972976,22.7329944 L23.972976,22.4663317 C23.972976,22.3330004 23.972976,22.2130022 24.0063088,22.0863374 C24.0063088,21.7396759 24.0663079,21.4196807 24.1063073,21.0796858 C24.1063073,21.0063535 24.1063073,20.9330213 24.1063073,20.859689 C24.1529733,20.4730281 24.1996392,20.1063669 24.2596383,19.7597054 L24.2596383,19.6663735 C24.3174153,19.3063789 24.3840809,18.9663839 24.4596354,18.6463887 C24.5329676,18.3197269 24.6129664,18.0197314 24.6996318,17.733069 C24.7929637,17.4530732 24.8862957,17.1864105 24.9862942,16.9397475 C25.0823253,16.7114564 25.1913922,16.4888708 25.312956,16.2730907 C25.4210008,16.0760005 25.54591,15.8886367 25.6862837,15.7130991 C25.8088397,15.5653295 25.9401868,15.4250775 26.0796112,15.2931054 L26.15961,15.2264397 C26.2934907,15.108118 26.438624,15.0031754 26.5929369,14.913111 C26.7210312,14.8402337 26.8547965,14.7778099 26.9929309,14.7264471 C27.1360526,14.6710564 27.2831303,14.6264874 27.4329244,14.5931158 L27.639588,14.5397832 C27.8749235,14.4965153 28.1136331,14.474206 28.3529107,14.4731176 L28.6662393,14.4731176 L28.8929026,14.4731176 L29.1128993,14.4731176 L29.3262295,14.513117 L23.3996512,13.1798035 L23.1663213,13.1398041 L22.9263249,13.1064713 L22.6796619,13.1064713 L22.4263323,13.1064713 C22.2163277,13.1068101 22.0067166,13.1246494 21.799675,13.1598038 L21.6796768,13.1598038 L21.5863449,13.1598038 C21.4301851,13.1909835 21.2764603,13.2333135 21.1263517,13.2864686 L21.0263532,13.326468 L20.8396893,13.3931337 L20.5130275,13.5597979 C20.4000974,13.6269408 20.2910375,13.7003893 20.1863657,13.7797946 L20.0463678,13.9064594 L19.9930353,13.9064594 L19.9930353,13.9464588 C19.8653407,14.0587172 19.7471609,14.1813567 19.6397072,14.31312 L19.5597084,14.4064519 C19.5249057,14.4458243 19.4936721,14.4882128 19.4663765,14.5331167 C19.431522,14.5748187 19.4002976,14.619425 19.3730445,14.666448 L19.2797126,14.8064459 L19.1997138,14.9464439 L19.1663809,14.9997764 L19.119715,15.0797752 L19.0397162,15.2331062 L18.9597174,15.3864373 L18.8797185,15.5731012 C18.8524989,15.6273928 18.8280239,15.6830176 18.8063863,15.7397654 L18.6663884,15.9997615 C18.6663884,16.0664272 18.6130559,16.1397594 18.5930562,16.2064251 L18.4997242,16.4597546 L18.4397251,16.6664182 L18.4397251,16.7330839 C18.4082317,16.8249686 18.3815295,16.9184263 18.3597263,17.0130797 C18.345558,17.0498897 18.3344102,17.0877921 18.3263935,17.1264114 C18.330165,17.1551767 18.330165,17.1843114 18.3263935,17.2130767 L18.3263935,17.2997421 L18.1968825,17.6195392 C18.1489163,17.8052189 18.1118753,17.9626059 18.0857594,18.0917001 C18.0465856,18.2853414 18.0060342,18.4344408 17.9864364,18.5677977 C17.9401563,18.8318011 17.9170163,18.9793582 17.9170163,19.0104688 L17.8770169,19.2556435 L17.8770169,19.6397072 C17.8737738,19.6885416 17.8737738,19.7375373 17.8770169,19.7863717 C17.8770169,19.7863717 17.8770169,19.8330377 17.8770169,19.8530374 C17.8436841,20.1330332 17.8103513,20.4196956 17.783685,20.7130246 L17.783685,20.7463574 C17.783685,20.7863568 17.783685,20.8263562 17.783685,20.8730222 C17.783685,21.0530195 17.7503522,21.2330168 17.7303524,21.4263473 C17.7303524,21.4930129 17.7303524,21.5730117 17.7303524,21.646344 C17.7303524,21.7196762 17.7303524,21.7263428 17.7303524,21.7730088 C17.7303524,21.8196747 17.7303524,21.8863404 17.7303524,21.9396729 C17.7303524,22.1863359 17.690353,22.4396655 17.6770199,22.6996616 C17.6770199,22.7596607 17.6770199,22.8129932 17.6770199,22.8729924 L17.6770199,22.939658 C17.6770199,23.3263189 17.6370205,23.7196464 17.6170208,24.126307 L17.6170208,24.2329721 C17.6136946,24.2907011 17.6136946,24.3485738 17.6170208,24.4063028 C17.6170208,24.7885194 17.6036877,25.1818468 17.5770214,25.5862852 L17.5770214,25.7262832 C17.5770214,26.1729432 17.5770214,26.6329363 17.5770214,27.1062626 L17.5770214,27.4395909 C17.5770214,27.9195838 17.5770214,28.4129098 17.5770214,28.9195689 C17.5770214,29.426228 17.5770214,29.8195555 17.5770214,30.2528823 L17.5770214,30.6062104 C17.5770214,30.9462053 17.5770214,31.2728671 17.5770214,31.5995289 C17.5770214,31.6661946 17.5770214,31.7395268 17.5770214,31.8128591 L17.5770214,31.8928579 C17.5770214,32.2928519 17.5770214,32.6861794 17.6103542,33.0728403 L17.6103542,33.1128397 C17.6103542,33.1728388 17.6103542,33.2261713 17.6103542,33.2861705 C17.6103542,33.5928325 17.6236874,33.8928281 17.6503536,34.186157 C17.647155,34.2438897 17.647155,34.3017551 17.6503536,34.3594878 C17.6471368,34.3971965 17.6471368,34.4351107 17.6503536,34.4728194 C17.6503536,34.8994797 17.6970196,35.3128069 17.7236859,35.7061344 C17.720032,35.7304419 17.720032,35.7551591 17.7236859,35.7794666 C17.7236859,35.819466 17.7236859,35.8594654 17.7236859,35.8994648 C17.7236859,36.0527959 17.7236859,36.2127935 17.7236859,36.3661245 C17.7236859,36.5194556 17.7636853,36.8261177 17.7903516,37.0327813 L17.7903516,37.1127801 C17.830351,37.4861078 17.8703504,37.8394359 17.9170163,38.1794308 C17.9170163,38.2194302 17.9170163,38.2594296 17.9170163,38.299429 C17.9144829,38.3215787 17.9144829,38.343945 17.9170163,38.3660947 C17.9570157,38.6927565 18.0103483,39.0327514 18.0570142,39.3060807 C18.0570142,39.3060807 18.0570142,39.3594132 18.0570142,39.3860795 C18.0570142,39.4127458 18.0570142,39.4727449 18.0570142,39.5194109 C18.0570142,39.6794085 18.1170134,39.8327395 18.1436796,39.979404 C18.1468445,40.0260163 18.1468445,40.0727896 18.1436796,40.1194019 L18.1436796,40.1994007 C18.183679,40.3660649 18.33306,40.7460592 18.3730594,40.8993903 C18.3762763,40.937099 18.3762763,40.9750132 18.3730594,41.0127219 C18.426392,41.1993858 18.4730579,41.3793831 18.5263905,41.5527139 C18.5263905,41.5527139 18.5263905,41.5527139 18.5263905,41.5927133 C18.5863896,41.7860437 18.6530553,41.9793742 18.7197209,42.1593715 C18.7197209,42.2193706 18.7663869,42.2727031 18.7930532,42.3327023 L18.8597188,42.4993664 L18.9397177,42.6860303 C19.0116703,42.8477582 19.0917718,43.0057362 19.1797141,43.1593566 L19.1797141,43.199356 C19.2530463,43.3260208 19.3263786,43.4526856 19.4063774,43.5726838 L19.5330421,43.7260148 L19.6197075,43.846013 L19.6863732,43.939345 L19.8063714,44.0726763 L19.9263696,44.1926745 L20.0463678,44.3060062 L20.1730326,44.4126712 L20.259698,44.4793369 L20.3463634,44.5460026 L20.4396953,44.6060017 L20.5263607,44.6660008 L20.5663601,44.6660008 L20.6463589,44.7060002 L20.7263577,44.7526662 L20.8063565,44.7926656 L20.8796887,44.7926656 L20.9596875,44.8259984 L21.0396863,44.8593313 L21.0996855,44.8593313 L21.1863508,44.8593313 L21.2663496,44.8593313 L21.353015,44.8593313 L21.4396804,44.8593313 L21.5330123,44.8593313 L21.6263443,44.8593313 L21.7263428,44.8593313 L21.8196747,44.8593313 L21.9396729,44.8593313 L22.0596711,44.8593313 L22.986324,44.8593313 L23.1263219,44.8593313 L23.1729879,44.8593313 L23.2529867,44.8593313 L23.386318,44.8593313 L29.3128963,43.5260178 L29.1195659,43.5660172 L29.0995662,43.8526796 Z" id="路径" fill="url(#linearGradient-16)"></path>
                        <path d="M22.6663288,12.6664778 C24.1261299,12.6664778 25.4489458,13.2529818 26.4119912,14.2032046 C24.9588644,15.1566544 23.9996422,16.7995022 23.9996422,18.6663884 L23.9996422,18.6663884 L23.9996422,40.6660604 C23.9996422,42.151734 24.6071199,43.4955236 25.5872336,44.4625875 C24.7487237,45.0124768 23.7449174,45.3326575 22.6663288,45.3326575 C19.720854,45.3326575 17.3330749,42.9448785 17.3330749,39.9994037 L17.3330749,17.9997317 C17.3330749,15.0542569 19.720854,12.6664778 22.6663288,12.6664778 Z" id="形状结合" fill="url(#linearGradient-17)"></path>
                        <g transform="translate(31.332866, 1.999970)" id="路径">
                            <path d="M13.5197985,24.126307 L17.7197358,24.3796366 C17.7197358,24.5996333 17.7197358,24.8262966 17.7197358,25.0462933 C17.7197358,25.26629 17.7197358,25.4996199 17.7197358,25.71295 C17.7197358,25.9262802 17.7197358,26.1729432 17.7197358,26.3796067 C17.7197358,26.5862703 17.7197358,26.8462665 17.7197358,27.0795963 C17.7197358,27.3129262 17.7197358,27.6129217 17.7197358,27.8795844 C17.7197358,28.1462471 17.7197358,28.4062432 17.7197358,28.6662393 C17.7197358,28.9262354 17.7197358,29.1862316 17.7197358,29.4462277 L17.6797364,30.2062164 L13.479799,30.4928788 C13.479799,30.2195495 13.5131319,29.9395537 13.5197985,29.6595578 C13.526465,29.379562 13.5197985,29.0995662 13.5531313,28.8129038 C13.5864641,28.5262414 13.5531313,28.239579 13.5531313,27.9529166 C13.5531313,27.6662542 13.5531313,27.3729253 13.5531313,27.0795963 L13.5531313,26.3129411 C13.5531313,26.0596115 13.5531313,25.8129485 13.5531313,25.559619 C13.5531313,25.3062894 13.5531313,25.0596264 13.5531313,24.8129634 C13.5531313,24.5663004 13.5531313,24.326304 13.5197985,24.079641" fill="url(#linearGradient-18)"></path>
                            <path d="M13.4997988,30.5395447 L17.6997361,30.2528823 C17.6997361,30.6395432 17.6530702,31.0195376 17.6197373,31.3995319 C17.5864045,31.7795262 17.5530717,32.1461874 17.5130723,32.5128486 C17.4730729,32.8795098 17.4330734,33.246171 17.3864075,33.6061657 C17.3397415,33.9661603 17.286409,34.3128218 17.2330764,34.6661499 L12.9931396,35.3328066 C13.0531387,34.9528123 13.1064713,34.5661514 13.1598038,34.1728239 C13.2131364,33.7794964 13.2598023,33.386169 13.2998017,32.9861749 C13.3398011,32.5861809 13.3798005,32.1795203 13.4131334,31.7661931 C13.4464662,31.3528659 13.4731325,30.9395388 13.4997988,30.519545" fill="url(#linearGradient-19)"></path>
                            <path d="M17.7864015,27.1262623 C17.7864015,26.1862763 17.7864015,25.2729566 17.7130693,24.3796366 L17.7130693,24.3796366 C17.7130693,23.8863106 17.6597367,23.3996512 17.6197373,22.9263249 C17.6197373,22.8329929 17.6197373,22.7463276 17.6197373,22.6596622 L17.5797379,22.2530016 C17.5797379,22.0063386 17.5397385,21.753009 17.5130723,21.5130126 C17.486406,21.2730162 17.4330734,20.8463559 17.3864075,20.5530269 C17.3864075,20.459695 17.3864075,20.3663631 17.3530746,20.2730311 L17.3530746,20.1463663 C17.2930755,19.6997063 17.2197433,19.2597129 17.1397445,18.8130529 L17.0797454,18.5063908 L17.039746,18.2863941 C17.039746,18.1663958 16.9864134,18.0597308 16.9664137,17.9463991 C16.9197478,17.7264024 16.8797484,17.4997391 16.8330824,17.2797424 C16.7864164,17.0597457 16.7330839,16.8797484 16.6797513,16.6730848 C16.6264188,16.4664212 16.593086,16.3130901 16.54642,16.1330928 L16.4664212,15.8264307 C16.3597561,15.4397698 16.2464245,15.0597755 16.1264263,14.6931143 C16.1264263,14.6197821 16.0864269,14.5464498 16.0597606,14.4731176 C16.0619491,14.4576392 16.0619491,14.4419299 16.0597606,14.4264516 C15.9130961,13.973125 15.7530985,13.5331316 15.5864343,13.0931381 L15.5264352,12.9464737 C15.3797707,12.5798125 15.2197731,12.233151 15.0664421,11.8798229 C14.9864433,11.6998256 14.913111,11.5131617 14.8331122,11.339831 L14.7864462,11.2598321 L14.7464468,11.1665002 C14.5597829,10.7865059 14.3597859,10.4331778 14.1597889,10.0731832 C14.0931232,9.95985152 14.0331241,9.83318674 13.9664585,9.7198551 C13.6731295,9.21986255 13.3598008,8.73986971 13.033139,8.27987657 L13.033139,8.27987657 C12.9598068,8.17321149 12.8731414,8.07987955 12.7931426,7.97321447 C12.5398131,7.63988611 12.2931501,7.30655774 12.0264874,6.99322908 L11.9664883,6.92656341 C11.7887131,6.71323326 11.6020493,6.50656967 11.4064966,6.30657265 C11.3064981,6.19990757 11.199833,6.09990907 11.093168,5.99991056 L11.0131692,5.91324518 L10.95317,5.85991264 L10.8198387,5.7265813 C10.6198417,5.53325085 10.4198447,5.35325353 10.2065145,5.17325621 C10.1198491,5.09325741 10.0331838,5.02659173 9.93985182,4.95325949 C9.88728845,4.90520034 9.83161291,4.86065992 9.77318764,4.81992815 L9.57319062,4.65326396 C9.43319271,4.53993232 9.28652823,4.43326724 9.13986375,4.32660217 L8.69320374,4.01327351 L8.63320463,3.9732741 L8.57987209,3.9732741 C8.46654045,3.89994186 8.35320881,3.81994305 8.23987716,3.75327738 L7.77321745,3.46661499 L7.36655685,3.2399517 L7.29989118,3.1999523 L7.25989177,3.1999523 L6.95322968,3.03995468 C6.81323176,2.96662244 6.67323385,2.8932902 6.52656937,2.82662453 L6.0932425,2.63329408 L6.03990996,2.63329408 L5.98657742,2.63329408 L5.92657832,2.63329408 L5.87324578,2.63329408 L0.619990757,0.39332747 C1.13998301,0.61332419 1.63997555,0.85998718 2.12663496,1.1199833 L2.17330093,1.1199833 C2.65329378,1.37997943 3.11328692,1.65997525 3.5666135,1.95330421 L3.61994604,1.99330362 C4.05066198,2.27886343 4.46673733,2.58591369 4.86659412,2.9132899 L5.04659143,3.05995438 C5.42658577,3.37328305 5.79324697,3.72661111 6.1532416,4.04660634 C6.20096931,4.10099095 6.25218804,4.15220968 6.30657265,4.19993739 C6.65323415,4.54659889 6.97322938,4.90659352 7.31322431,5.28658786 C7.65321924,5.66658219 7.87988253,5.95324458 8.15321179,6.35323862 C8.24654373,6.4799034 8.34654224,6.59323504 8.43320761,6.71989982 C8.79320225,7.21989237 9.09986434,7.74655118 9.45319241,8.28654313 C9.52652465,8.41987448 9.59319032,8.55987239 9.67318913,8.69320374 C9.90651898,9.11986404 10.1398488,9.54652435 10.3398459,10.0265172 C10.4465109,10.2465139 10.5398429,10.4798438 10.6398414,10.6931739 C10.8131721,11.0731683 10.9865029,11.4531626 11.1398339,11.8531566 C11.3531641,12.3953708 11.5531611,12.9486959 11.739825,13.5131319 C11.739825,13.5931307 11.786491,13.6731295 11.8131572,13.7464617 C11.9731548,14.2597874 12.1264859,14.7864462 12.2664838,15.3264382 C12.3198163,15.5197686 12.3664823,15.7197657 12.4131483,15.9197627 C12.5264799,16.3664227 12.6264784,16.8264158 12.7264769,17.2930755 L12.8464752,17.9063997 C12.9664734,18.5330571 13.0731384,19.1663809 13.1664704,19.8197045 L13.2064698,20.1263666 C13.2864686,20.7330243 13.3598008,21.353015 13.4131334,21.9796723 C13.4131334,22.1263368 13.4131334,22.2730013 13.4597993,22.4263323 C13.5931307,23.9818647 13.6597964,25.6062849 13.6597964,27.299593 C13.6837741,30.4965119 13.4047533,33.6885101 12.8264755,36.8327842 L12.7864761,37.0327813 C12.6531447,37.699438 12.5064802,38.3660947 12.3464826,38.9860855 C12.3495008,39.01935 12.3495008,39.0528195 12.3464826,39.086084 C12.1798184,39.7527407 11.9998211,40.3660649 11.7998241,40.9860557 C11.7872909,41.0336752 11.7717033,41.080438 11.7531581,41.1260536 C11.5531611,41.7349334 11.3309422,42.3282579 11.0865014,42.906027 C11.0741348,42.9298807 11.063009,42.9543574 11.0531686,42.9793593 C10.8131721,43.5726838 10.5665091,44.139342 10.2931799,44.6926671 L10.2931799,44.6926671 C10.0265172,45.2459922 9.7398548,45.772651 9.43985927,46.2793101 L9.39985987,46.3526423 C9.10653091,46.8526349 8.79320225,47.3259612 8.47320702,47.7859543 L8.38654164,47.8992859 C8.07321298,48.3392794 7.71988492,48.7659397 7.40655625,49.1659337 L7.33322401,49.2525991 C7.00656222,49.63926 6.66656728,50.0059212 6.29990608,50.3659158 L6.0732428,50.5859126 C5.71324816,50.9325741 5.34658696,51.2525693 4.96659263,51.5792311 L4.83992785,51.6792296 C4.47993322,51.9725585 4.10660545,52.2458878 3.71994454,52.5058839 L3.49994782,52.659215 C3.09328722,52.9258777 2.67329348,53.1792072 2.24663317,53.4125371 L1.97330392,53.5592016 C1.52664391,53.7925314 1.07331733,54.0191947 0.599991056,54.2258583 L5.85324608,51.9858917 C6.28657295,51.8058944 6.69990012,51.5992308 7.11322729,51.3792341 L7.35989028,51.2459027 L7.57322043,51.1392376 C7.89321566,50.9525738 8.23987716,50.7592433 8.51320642,50.5525797 L8.71987001,50.4125818 L9.16653002,50.1059197 C9.35986047,49.9659218 9.55319092,49.8125907 9.74652137,49.6592597 L9.86651958,49.5659278 C10.1265157,49.3525976 10.3865118,49.1259343 10.6331748,48.899271 L10.8798378,48.652608 C10.920637,48.6228652 10.958578,48.5893878 10.9931695,48.5526095 L11.093168,48.4459445 C11.3931635,48.1459489 11.693159,47.8392868 11.9731548,47.512625 C11.9974467,47.4853895 12.0197272,47.4564248 12.0398205,47.4259597 C12.0654399,47.4048346 12.0878911,47.3801382 12.1064862,47.3526274 L12.3931486,47.0059659 C12.5331465,46.8326352 12.6664778,46.6593044 12.7998092,46.4793071 C12.9331405,46.2993098 12.9398071,46.2859767 13.0131393,46.1859781 L13.0864716,46.0793131 C13.1198044,46.0326471 13.1598038,45.9859811 13.1931367,45.9326486 C13.3198014,45.7459847 13.4464662,45.5593208 13.5664644,45.3659904 L13.8864597,44.8593313 L13.9331256,44.7726659 L13.973125,44.7060002 C14.0464573,44.5793354 14.1197895,44.4593372 14.1864552,44.3326724 C14.2531209,44.2060077 14.3864522,43.9793444 14.4797841,43.7993471 L14.75978,43.246022 L14.75978,43.246022 C14.8531119,43.0593581 14.9397773,42.8726942 15.0264427,42.6793638 C15.113108,42.4860333 15.1997734,42.2993694 15.2797722,42.106039 L15.4597695,41.6793787 C15.4597695,41.6793787 15.4597695,41.6327127 15.4597695,41.6060464 L15.4997689,41.5127145 L15.7264322,40.9127234 C15.806431,40.6927267 15.8864298,40.47273 15.9597621,40.2460667 C15.9930949,40.1527348 16.0197612,40.0594028 16.053094,39.9660709 L16.0930934,39.8394061 C16.0930934,39.7527407 16.1530925,39.6660753 16.1797588,39.5727434 C16.253091,39.3460801 16.3197567,39.1194168 16.3864224,38.9060867 C16.4530881,38.6927565 16.5130872,38.439427 16.5797528,38.2394299 L16.5797528,38.1527646 L16.5797528,38.0660992 C16.6330854,37.852769 16.6864179,37.6461055 16.7330839,37.3994425 C16.7797499,37.1527795 16.8597487,36.8527839 16.9197478,36.5794547 L16.9797469,36.2461263 C16.9821278,36.2172869 16.9821278,36.1883004 16.9797469,36.159461 L16.9797469,36.066129 L17.039746,35.7328006 C17.0930785,35.4461383 17.1464111,35.1594759 17.193077,34.8661469 L17.193077,34.8661469 C17.5984208,32.3063097 17.7968377,29.7179724 17.7864015,27.1262623 Z" fill="url(#linearGradient-20)"></path>
                        </g>
                        <path d="M43.9993441,19.2530463 C43.8260133,18.3863926 43.6260163,17.5530717 43.4060196,16.746417 C42.5677452,13.4757433 41.0780298,10.4078818 39.0260849,7.72655148 C37.1755481,5.34940814 34.7601507,3.47254805 31.999523,2.26663288 C28.9778903,1.01232613 25.7228565,0.419055319 22.4529986,0.526658815 C19.1698104,0.514250662 15.9210133,1.19536912 12.9198074,2.526629 C10.190924,3.79168164 7.81464339,5.70781545 5.99991056,8.10654582 C4.03435912,10.7766574 2.60780883,13.8041142 1.79997317,17.0197463 C0.803197733,20.9765059 0.325859016,25.0462107 0.379994335,29.1262325 C0.325885273,33.2084507 0.803219211,37.2803557 1.79997317,41.2393852 C2.60780883,44.4550173 4.03435912,47.4824741 5.99991056,50.1525857 C7.80688113,52.542187 10.1711651,54.4532975 12.8864746,55.7191694 C15.8886684,57.0473654 19.1368044,57.7287925 22.4196658,57.7191395 C23.9481328,57.7498168 25.4763112,57.6449637 26.9862644,57.4058109 C28.7105294,57.1527799 30.395309,56.6800559 31.999523,55.9991652 C34.773367,54.7967387 37.2025497,52.9198513 39.0660843,50.5392466 C41.11678,47.857146 42.6063669,44.7895493 43.446019,41.519381 C44.4998732,37.4766267 45.0044013,33.3103456 44.9459966,29.132899 C44.9593884,25.8163466 44.642271,22.5067126 43.9993441,19.2530463 Z M26.3996064,41.6260461 C26.140381,42.6727578 25.6011093,43.6291586 24.8396297,44.3926715 C24.1802003,44.9756223 23.3186987,45.2771479 22.4396655,45.232659 C21.5403787,45.2580079 20.664514,44.9438391 19.9863687,44.3526721 C19.2254354,43.5824252 18.6845076,42.6225661 18.4197254,41.5727136 C17.9728298,39.9457638 17.6957977,38.2768688 17.5930711,36.5927878 C17.4197403,34.5394851 17.3464081,32.0661886 17.3464081,29.1262325 C17.3464081,26.1862763 17.4197403,23.6863136 17.5930711,21.6330108 C17.694527,19.9509762 17.9715849,18.2841604 18.4197254,16.6597516 C18.6794218,15.6136901 19.2213317,14.6590064 19.9863687,13.8997928 C20.6638107,13.3081338 21.5407455,12.9959641 22.4396655,13.0264725 C23.3182923,12.9765388 24.181014,13.276095 24.8396297,13.8597934 C25.6026042,14.6142322 26.1424351,15.5647038 26.3996064,16.6064191 C26.8481361,18.2355341 27.1273881,19.9065785 27.2329274,21.5930114 C27.3995915,23.6596473 27.4729238,26.1529435 27.4729238,29.1262325 C27.4729238,32.0995215 27.3995915,34.5661514 27.2329274,36.6327872 C27.1261572,38.3212692 26.8469299,39.9943988 26.3996064,41.6260461 L26.3996064,41.6260461 Z" id="形状" fill="url(#linearGradient-21)"></path>
                    </g>
                    <path d="M149.59777,29.1262325 C149.656175,33.3036791 149.151646,37.4699601 148.097792,41.5127145 C147.25814,44.7828828 145.768553,47.8504795 143.717858,50.53258 C141.858858,52.9138641 139.434369,54.7929581 136.664629,55.9991652 C135.071951,56.6841977 133.398513,57.1636029 131.684704,57.4258106 L148.66445,19.2530463 C149.302461,22.5049767 149.61511,25.8123513 149.59777,29.1262325 Z" id="路径" fill="url(#linearGradient-22)" fill-rule="nonzero" style="mix-blend-mode: multiply;"></path>
                    <g id="编组" transform="translate(145.331167, 1.999970)" fill-rule="nonzero">
                        <polygon id="路径" fill="url(#linearGradient-23)" points="18.0597308 32.4395164 24.9996273 32.1128546 29.8795546 32.1195212 23.3596518 32.4528495"></polygon>
                        <polygon id="路径" fill="url(#linearGradient-24)" points="31.1395358 0.193330451 37.0461144 2.53329557 24.9996273 32.1128546 18.0597308 32.4395164"></polygon>
                        <polygon id="路径" fill="url(#linearGradient-25)" points="45.2259925 44.3926715 45.2259925 54.4791878 40.0327365 56.8458192 40.0327365 45.8459832"></polygon>
                        <polygon id="路径" fill="url(#linearGradient-26)" points="40.0327365 21.5663452 45.2259925 22.13967 45.2259925 32.152854 40.0327365 32.4928489"></polygon>
                        <polygon id="路径" fill="url(#linearGradient-27)" points="46.4393077 32.5061821 51.1192379 32.1661871 51.1192379 44.4526707 46.4393077 45.9059823"></polygon>
                        <polygon id="路径" fill="url(#linearGradient-28)" points="40.0327365 32.4928489 45.2259925 32.152854 51.1192379 32.1661871 46.4393077 32.5061821"></polygon>
                        <polygon id="路径" fill="url(#linearGradient-29)" points="46.4459743 32.5061821 46.4459743 45.9126489 45.2259925 45.8993158 40.0327365 45.8459832 40.0327365 56.8458192 23.3596518 56.5658234 23.3596518 45.6726525 0.293328961 45.4393226 0.293328961 33.586166 14.1064564 0.479992844 31.1462024 0.193330451 18.0597308 32.4395164 23.3596518 32.4528495 23.3596518 21.6330108 40.0327365 21.5663452 40.0327365 32.4928489"></polygon>
                    </g>
                    <path d="M54.3258568,62.565734 C53.7270236,65.4481913 53.4542026,68.3888436 53.5125356,71.3322699 C53.6592001,75.3322103 53.1858738,101.398488 53.1858738,101.398488 L56.372493,101.398488 C56.372493,101.398488 60.9124253,80.9587931 61.085756,79.3454838 C61.2590868,77.7321745 63.5323862,61.5924151 63.5323862,61.5924151 L54.3258568,62.565734 Z" id="路径" fill="url(#linearGradient-30)" fill-rule="nonzero"></path>
                    <path d="M56.4458252,61.379085 C56.8833234,64.6006097 57.5517005,67.786541 58.4457954,70.9122762 C59.6924435,74.8788837 65.8190188,101.405155 65.8190188,101.405155 L69.005638,101.405155 C69.005638,101.405155 68.41898,80.9654597 68.1989833,79.3521504 C67.9789866,77.7388411 66.3656773,61.5990817 66.3656773,61.5990817 L56.4458252,61.379085 Z" id="路径" fill="url(#linearGradient-31)" fill-rule="nonzero"></path>
                    <path d="M65.3990251,100.665166 L65.3990251,103.411792 L72.8922467,103.411792 C73.0840204,103.416839 73.255582,103.293272 73.3115622,103.109781 C73.3675425,102.926291 73.2941746,102.728 73.1322431,102.625137 C71.7947782,101.670239 70.2739313,101.002882 68.665643,100.665166 L65.3990251,100.665166 Z" id="路径" fill="url(#linearGradient-32)" fill-rule="nonzero"></path>
                    <path d="M53.3325383,100.705165 L53.3325383,103.471791 L60.8990921,103.471791 C61.0896388,103.471264 61.2574818,103.346324 61.3126569,103.16394 C61.367832,102.981556 61.2973902,102.78453 61.1390886,102.678469 C59.789049,101.70707 58.2522937,101.026085 56.6258225,100.678499 L53.3325383,100.705165 Z" id="路径" fill="url(#linearGradient-33)" fill-rule="nonzero"></path>
                    <path d="M64.2990415,35.4394717 C64.2990415,35.4394717 66.385677,32.2661857 63.9857128,31.9595236 C62.1524068,31.7195271 61.3924181,32.2728522 61.3924181,32.2728522 C61.3924181,32.2728522 59.2724497,32.0395224 58.112467,33.0395075 C57.3191455,33.7061642 54.4058556,39.0727509 59.1191187,41.0060554 C63.8323817,42.9393599 62.8323967,37.9994335 62.8323967,37.9994335 L64.2990415,35.4394717 Z" id="路径" fill="url(#linearGradient-34)" fill-rule="nonzero"></path>
                    <path d="M63.9990459,31.9595236 C61.9990757,31.999523 61.332419,31.999523 61.332419,31.999523 C61.332419,31.999523 59.2724497,32.0395224 58.112467,33.0395075 C57.3324786,33.7328305 54.6658517,38.6660902 59.1191187,41.0060554 C61.2390871,42.1193721 62.2857381,41.2993843 62.672399,40.3993977 C58.1991324,41.6527124 57.7191395,36.266126 58.4524619,34.726149 C59.1857844,33.1861719 61.0057572,33.8928281 61.0057572,33.8928281 C61.6724139,32.1195212 63.9990459,32.3128516 64.9456985,32.446183 C64.7348685,32.1319244 64.3773016,31.9481047 63.9990459,31.9595236 L63.9990459,31.9595236 Z" id="路径" fill="url(#linearGradient-35)" fill-rule="nonzero"></path>
                    <path d="M61.332419,36.9861153 C61.332419,36.9861153 60.7190948,36.3661245 60.2524351,36.9861153 C59.7857754,37.6061061 60.0991041,38.9860855 60.8724259,39.0727509 C60.8724259,39.0727509 60.639096,41.072721 59.0924524,41.0060554 L59.0924524,42.6260312 L62.7257316,42.6260312 L62.7257316,41.3927163 C62.7257316,41.3927163 64.9656982,40.4593968 64.8923659,38.6060911 C64.8532421,37.5245466 64.644015,36.4559131 64.2723752,35.4394717 C63.4943731,36.2711876 62.458536,36.8161178 61.332419,36.9861153 Z" id="路径" fill="url(#linearGradient-36)" fill-rule="nonzero"></path>
                    <path d="M54.6658517,35.8594654 L53.8391974,34.3861541 C55.1680422,31.8045772 54.2810714,28.6350581 51.8052987,27.1181806 C49.3295261,25.601303 46.1028935,26.2504644 44.4063591,28.6067621 C42.7098248,30.9630598 43.1175921,34.2289891 45.3414039,36.0958123 C47.5652156,37.9626356 50.8524078,37.7985139 52.8792117,35.7194675 L54.6658517,35.8594654 Z" id="路径" fill="url(#linearGradient-37)" fill-rule="nonzero"></path>
                    <path d="M44.6660008,30.6262101 L44.9793295,30.6262101 L44.9793295,31.7595265 C44.9793295,32.106188 45.079328,32.2528525 45.325991,32.2528525 C45.572654,32.2528525 45.6459862,32.1595206 45.8259835,31.9395239 L45.8259835,30.6062104 L46.1326456,30.6062104 L46.1326456,32.4595161 L45.8793161,32.4595161 L45.8793161,32.1661871 L45.8793161,32.1661871 C45.7423365,32.3691811 45.517304,32.4952982 45.2726584,32.5061821 C44.879331,32.5061821 44.7060002,32.2528525 44.7060002,31.7795262 L44.6660008,30.6262101 Z" id="路径" fill="#FFFFFF" fill-rule="nonzero"></path>
                    <path d="M47.4659591,32.6661797 L47.4659591,33.292837 L47.1526304,33.292837 L47.1526304,30.6595429 L47.4126265,30.6595429 L47.4126265,30.8728731 L47.4126265,30.8728731 C47.5758508,30.7234341 47.7851278,30.6340798 48.005951,30.6195435 C48.4792773,30.6195435 48.7392734,30.9862047 48.7392734,31.5595295 C48.7392734,32.1328543 48.3592791,32.5595146 47.9392853,32.5595146 C47.7489242,32.5487247 47.5678975,32.4734929 47.4259597,32.3461845 L47.4659591,32.6661797 Z M47.9192856,32.2928519 C48.2192812,32.2928519 48.4459445,32.0195227 48.4459445,31.5595295 C48.4459445,31.0995364 48.3059465,30.8928728 47.959285,30.8928728 C47.7689928,30.9127983 47.5930284,31.0031584 47.4659591,31.1462024 L47.4659591,32.1128546 C47.5962902,32.2113016 47.755988,32.2629686 47.9192856,32.2595191 L47.9192856,32.2928519 Z" id="形状" fill="#FFFFFF" fill-rule="nonzero"></path>
                    <path d="M49.592594,32.0595221 C49.7429093,32.1954403 49.9366907,32.2734255 50.1392525,32.2795188 C50.379249,32.2795188 50.5059137,32.152854 50.5059137,31.9928564 C50.5059137,31.8328588 50.2792505,31.7195271 50.0792534,31.6395283 C49.8792564,31.5595295 49.5259284,31.4195316 49.5259284,31.1062029 C49.5259284,30.7928743 49.7659248,30.5862107 50.1925851,30.5862107 C50.4016227,30.5879607 50.6038316,30.6608499 50.7659099,30.7928743 L50.6192454,30.9928713 C50.501174,30.8886673 50.350026,30.8296252 50.1925851,30.8262071 C49.9659218,30.8262071 49.8592567,30.9528719 49.8592567,31.0928698 C49.8592567,31.2328677 50.0592537,31.3328662 50.2659173,31.412865 C50.4725809,31.4928639 50.8325755,31.6195286 50.8325755,31.9728567 C50.8325755,32.3261848 50.5925791,32.5261818 50.1659188,32.5261818 C49.9209338,32.5162375 49.6862939,32.424728 49.4992621,32.2661857 L49.592594,32.0595221 Z" id="路径" fill="#FFFFFF" fill-rule="nonzero"></path>
                    <path d="M51.7792281,32.0461889 C51.841726,32.0460807 51.9014952,32.0717827 51.9444078,32.1172195 C51.9873204,32.1626564 52.0095678,32.2237956 52.0058914,32.2861854 C52.007685,32.3480753 51.9848063,32.4081405 51.9422933,32.4531542 C51.8997804,32.4981679 51.8411195,32.5244387 51.7792281,32.5261818 C51.7167302,32.52629 51.656961,32.500588 51.6140484,32.4551512 C51.5711358,32.4097143 51.5488884,32.3485751 51.5525648,32.2861854 C51.5488884,32.2237956 51.5711358,32.1626564 51.6140484,32.1172195 C51.656961,32.0717827 51.7167302,32.0460807 51.7792281,32.0461889 L51.7792281,32.0461889 Z" id="路径" fill="#FFFFFF" fill-rule="nonzero"></path>
                    <path d="M53.105875,32.0461889 C53.1683729,32.0460807 53.2281421,32.0717827 53.2710547,32.1172195 C53.3139673,32.1626564 53.3362147,32.2237956 53.3325383,32.2861854 C53.3325383,32.411368 53.2310577,32.5128486 53.105875,32.5128486 C52.9806923,32.5128486 52.8792117,32.411368 52.8792117,32.2861854 C52.8755353,32.2237956 52.8977827,32.1626564 52.9406953,32.1172195 C52.9836079,32.0717827 53.0433771,32.0460807 53.105875,32.0461889 L53.105875,32.0461889 Z" id="路径" fill="#FFFFFF" fill-rule="nonzero"></path>
                    <polygon id="路径" points="53.4925359 58.8924554 54.1325263 60.285768 54.2258583 58.9657876 54.8325159 50.6659114 51.4592329 54.445855"></polygon>
                    <path d="M67.3323296,41.3327172 L71.3322699,43.3326873 L75.3322103,40.6660604 C75.998867,39.9994037 76.3521951,39.0460846 76.1055321,38.7394225 C73.3322401,35.3328066 62.6657325,33.9994932 62.6657325,33.9994932 C62.6657325,33.9994932 60.6657623,33.3328364 60.6657623,33.9994932 C60.6657623,34.6661499 62.2390722,34.8528138 62.2390722,34.8528138 C62.2390722,34.8528138 61.2724199,35.0861436 61.332419,35.3328066 C61.3924181,35.5794696 61.8324116,35.3328066 61.9990757,35.3328066 C64.2857083,35.4794711 72.5855846,38.8194213 71.9989267,39.332747 L67.3323296,41.3327172 Z" id="路径" fill="#FDDCBD" fill-rule="nonzero"></path>
                    <path d="M49.3859304,51.3859006 C49.3859304,51.3859006 47.1859632,54.2325249 47.3326277,55.3325085 C47.6526229,57.7924718 53.999195,62.6657325 53.999195,62.6657325 L54.4058556,59.8057751 C54.4058556,59.8057751 50.6659114,55.9991652 50.6659114,55.3325085 C50.6659114,54.4991875 52.6658815,52.6658815 52.6658815,52.6658815 L49.3859304,51.3859006 Z" id="路径" fill="#FDDCBD" fill-rule="nonzero"></path>
                    <polygon id="路径" points="52.6658815 55.3325085 52.6658815 57.0858157 53.4925359 58.8924554 54.1325263 60.285768 54.2258583 58.9657876 54.8325159 50.6659114 51.4592329 54.445855 51.9992248 55.6258374 51.9992248 55.3325085"></polygon>
                    <path d="M53.8191977,64.5123716 L53.8191977,64.5923704 L54.4858544,64.6523695 C56.5924897,64.8523665 63.3390558,65.3856919 66.9123358,64.6523695 L67.0123343,64.6523695 L66.8390036,48.8526051 C68.6933533,47.38394 70.4195385,45.7603446 71.9989267,43.9993441 C71.6304205,43.0894866 70.908814,42.3678801 69.9989565,41.9993739 C69.224051,41.6177842 68.4930735,41.1528199 67.818989,40.6127279 C66.4390096,41.2793846 64.8323668,41.9993739 64.0457119,42.3593685 C63.7271703,42.5016978 63.3812313,42.5722511 63.0323937,42.5660321 L58.5257942,42.5660321 C56.2967271,42.4581989 54.1464697,43.4037197 52.7192141,45.1193274 C51.2294544,46.862752 49.8744554,48.7169612 48.6659412,50.6659114 L49.9992546,51.9992248 C50.7515061,52.6761848 51.6729627,53.1369131 52.6658815,53.3325383 L52.6658815,53.3325383 L54.8325159,50.6659114 L54.2258583,58.9657876" id="路径" fill="url(#linearGradient-38)" fill-rule="nonzero"></path>
                    <circle id="椭圆形" fill="url(#radialGradient-39)" fill-rule="nonzero" opacity="0.84" cx="163.044236" cy="98.9518582" r="9.61985659"></circle>
                    <circle id="椭圆形" fill="url(#radialGradient-40)" fill-rule="nonzero" opacity="0.66" cx="209.663541" cy="45.2393256" r="5.33325383"></circle>
                </g>
                <text font-family="PingFangSC-Regular, PingFang SC" font-size="14" font-weight="normal" fill="#000000" fill-opacity="0.65">
                    <tspan x="119" y="140">404</tspan>
                </text>
            </g>
        </g>
    </g>
</svg>