<?xml version="1.0" standalone="no"?><!DOCTYPE svg PUBLIC "-//W3C//DTD SVG 1.1//EN" "http://www.w3.org/Graphics/SVG/1.1/DTD/svg11.dtd"><svg height="1024" node-id="1" sillyvg="true" template-height="1024" template-width="1024" version="1.1" viewBox="0 0 1024 1024" width="1024" xmlns="http://www.w3.org/2000/svg" xmlns:xlink="http://www.w3.org/1999/xlink"><defs node-id="102"><linearGradient gradientUnits="objectBoundingBox" id="linearGradient1" node-id="104" spreadMethod="pad" x1="0.34655145" x2="0.5" y1="0.2323515" y2="0.63644415"><stop offset="0" stop-color="#e6e8ed"></stop><stop offset="1" stop-color="#ffffff" stop-opacity="0"></stop></linearGradient><linearGradient gradientUnits="objectBoundingBox" id="linearGradient-1" node-id="5" spreadMethod="pad" x1="0.34655145" x2="0.5" y1="0.2323515" y2="0.63644415"><stop offset="0" stop-color="#e6e8ed"></stop><stop offset="1" stop-color="#ffffff" stop-opacity="0"></stop></linearGradient><linearGradient gradientUnits="objectBoundingBox" id="linearGradient-2" node-id="8" spreadMethod="pad" x1="0.34655142" x2="0.49999997" y1="0.23235148" y2="0.6364441"><stop offset="0" stop-color="#e6e8ed"></stop><stop offset="1" stop-color="#ffffff" stop-opacity="0"></stop></linearGradient><linearGradient gradientUnits="objectBoundingBox" id="linearGradient-3" node-id="11" spreadMethod="pad" x1="0.34655145" x2="0.5" y1="0.2323515" y2="0.63644415"><stop offset="0" stop-color="#e6e8ed"></stop><stop offset="1" stop-color="#ffffff"></stop></linearGradient><linearGradient gradientUnits="objectBoundingBox" id="linearGradient-4" node-id="14" spreadMethod="pad" x1="0.34655145" x2="0.5" y1="0.2323515" y2="0.63644415"><stop offset="0" stop-color="#e6e8ed"></stop><stop offset="1" stop-color="#ffffff"></stop></linearGradient><linearGradient gradientUnits="objectBoundingBox" id="linearGradient2" node-id="135" spreadMethod="pad" x1="0.5" x2="0.5" y1="0" y2="1"><stop offset="0" stop-color="#eeeeee"></stop><stop offset="1" stop-color="#d0d3df"></stop></linearGradient><linearGradient gradientUnits="objectBoundingBox" id="linearGradient3" node-id="142" spreadMethod="pad" x1="0.5" x2="0.5" y1="0" y2="1"><stop offset="0" stop-color="#d1d4df"></stop><stop offset="1" stop-color="#e8ebf0"></stop></linearGradient><linearGradient gradientUnits="objectBoundingBox" id="linearGradient4" node-id="149" spreadMethod="pad" x1="0.5" x2="0.5" y1="0" y2="1"><stop offset="0" stop-color="#eeeeee"></stop><stop offset="1" stop-color="#d0d3df"></stop></linearGradient><linearGradient gradientUnits="objectBoundingBox" id="linearGradient5" node-id="156" spreadMethod="pad" x1="0.5" x2="0.5" y1="0" y2="1"><stop offset="0" stop-color="#d1d4df"></stop><stop offset="1" stop-color="#e8ebf0"></stop></linearGradient><linearGradient gradientUnits="objectBoundingBox" id="linearGradient-5" node-id="17" spreadMethod="pad" x1="0.5" x2="0.5" y1="0" y2="1"><stop offset="0" stop-color="#eeeeee"></stop><stop offset="1" stop-color="#d0d3df"></stop></linearGradient><linearGradient gradientUnits="objectBoundingBox" id="linearGradient6" node-id="169" spreadMethod="pad" x1="0.5" x2="0.5" y1="0.016121585" y2="1"><stop offset="0" stop-color="#f4f7fb"></stop><stop offset="0.9999999" stop-color="#d6d8e2"></stop><stop offset="1" stop-color="#d8d8d8"></stop></linearGradient><linearGradient gradientUnits="objectBoundingBox" id="linearGradient-6" node-id="20" spreadMethod="pad" x1="0.5" x2="0.5" y1="0" y2="1"><stop offset="0" stop-color="#d1d4df"></stop><stop offset="1" stop-color="#e8ebf0"></stop></linearGradient><linearGradient gradientUnits="objectBoundingBox" id="linearGradient-7" node-id="23" spreadMethod="pad" x1="0.5" x2="0.5" y1="0" y2="1"><stop offset="0" stop-color="#d1d4df"></stop><stop offset="1" stop-color="#e8ebf0"></stop></linearGradient><linearGradient gradientUnits="objectBoundingBox" id="linearGradient-8" node-id="26" spreadMethod="pad" x1="0.5" x2="0.5" y1="0.016121585" y2="1"><stop offset="0" stop-color="#f4f7fb"></stop><stop offset="0.9999999" stop-color="#d6d8e2"></stop><stop offset="1" stop-color="#d8d8d8"></stop></linearGradient><linearGradient gradientUnits="objectBoundingBox" id="linearGradient-9" node-id="30" spreadMethod="pad" x1="0.5" x2="0.5" y1="0" y2="1"><stop offset="0" stop-color="#eef0f4"></stop><stop offset="0.66519976" stop-color="#f7f8f9"></stop><stop offset="1" stop-color="#fcfcfc" stop-opacity="0"></stop></linearGradient><linearGradient gradientUnits="objectBoundingBox" id="linearGradient-10" node-id="34" spreadMethod="pad" x1="0.5" x2="0.5" y1="0" y2="1"><stop offset="0" stop-color="#eef1f8"></stop><stop offset="0.5783102" stop-color="#e9ebf0"></stop><stop offset="1" stop-color="#f4f6f8" stop-opacity="0"></stop></linearGradient><linearGradient gradientUnits="objectBoundingBox" id="linearGradient-11" node-id="38" spreadMethod="pad" x1="0.5" x2="0.5" y1="0" y2="1"><stop offset="0" stop-color="#eef0f4"></stop><stop offset="0.66519976" stop-color="#f7f8f9"></stop><stop offset="1" stop-color="#fcfcfc" stop-opacity="0"></stop></linearGradient><linearGradient gradientUnits="objectBoundingBox" id="linearGradient-12" node-id="42" spreadMethod="pad" x1="0.5" x2="0.5" y1="0" y2="1"><stop offset="0" stop-color="#eef1f8"></stop><stop offset="0.5783102" stop-color="#e9ebf0"></stop><stop offset="1" stop-color="#f4f6f8" stop-opacity="0"></stop></linearGradient></defs><path d="M 235.50 690.60 L 228.30 682.80 L 222.50 675.60 L 217.90 669.10 L 214.50 663.20 L 212.00 657.80 L 210.30 652.90 L 209.30 648.40 L 209.00 644.30 L 209.30 640.40 L 210.10 636.80 L 211.50 633.40 L 213.50 630.00 L 216.10 626.80 L 219.40 623.70 L 223.50 620.70 L 228.60 617.80 L 234.70 615.00 L 242.00 612.40 L 251.60 609.50 L 260.20 601.40 L 269.50 594.00 L 277.20 589.30 L 285.90 585.50 L 290.70 584.20 L 295.70 583.30 L 303.50 583.10 L 307.60 583.50 L 316.10 585.60 L 320.50 587.30 L 325.10 589.60 L 329.90 592.50 L 334.40 595.70 L 339.10 599.60 L 351.50 612.00 L 362.90 622.00 L 367.10 626.10 L 373.80 633.90 L 377.90 640.70 L 379.40 644.30 L 380.50 648.10 L 381.00 652.00 L 380.60 657.80 L 378.60 664.20 L 377.00 667.20 L 372.10 673.60 L 368.60 677.20 L 360.70 683.50 L 349.30 690.60 L 339.60 695.60 L 330.40 699.70 L 321.60 703.00 L 313.10 705.50 L 305.00 707.30 L 297.20 708.40 L 289.60 708.90 L 282.30 708.70 L 275.20 707.90 L 268.30 706.60 L 261.50 704.70 L 254.90 702.10 L 248.30 698.90 L 241.90 695.10 L 235.50 690.60 Z" fill="url(#linearGradient1)" fill-rule="evenodd" id="路径-212备份-2" node-id="47" stroke="none" target-height="125.80005" target-width="172" target-x="209" target-y="583.1"></path><path d="M 530.50 752.60 L 523.30 744.80 L 517.50 737.60 L 512.90 731.10 L 509.50 725.20 L 507.00 719.80 L 505.30 714.90 L 504.30 710.40 L 504.00 706.30 L 504.30 702.40 L 505.10 698.80 L 506.50 695.40 L 508.50 692.00 L 511.10 688.80 L 514.40 685.70 L 518.50 682.70 L 523.60 679.80 L 529.70 677.00 L 537.00 674.40 L 546.60 671.50 L 555.20 663.40 L 564.50 656.00 L 572.20 651.30 L 580.90 647.50 L 585.70 646.20 L 590.70 645.30 L 598.50 645.10 L 602.60 645.50 L 611.10 647.60 L 615.50 649.30 L 620.10 651.60 L 624.90 654.50 L 629.40 657.70 L 634.10 661.60 L 646.50 674.00 L 657.90 684.00 L 662.10 688.10 L 668.80 695.90 L 672.90 702.70 L 674.40 706.30 L 675.50 710.10 L 676.00 714.00 L 675.60 719.80 L 673.60 726.20 L 672.00 729.20 L 667.10 735.60 L 663.60 739.20 L 655.70 745.50 L 644.30 752.60 L 634.60 757.60 L 625.40 761.70 L 616.60 765.00 L 608.10 767.50 L 600.00 769.30 L 592.20 770.40 L 584.60 770.90 L 577.30 770.70 L 570.20 769.90 L 563.30 768.60 L 556.50 766.70 L 549.90 764.10 L 543.30 760.90 L 536.90 757.10 L 530.50 752.60 Z" fill="url(#linearGradient-1)" fill-rule="evenodd" id="路径-212备份-3" node-id="48" stroke="none" target-height="125.80005" target-width="172" target-x="504" target-y="645.1"></path><g node-id="229"><path d="M 462.40 618.30 L 455.30 617.30 L 449.60 615.90 L 445.30 614.30 L 441.90 612.50 L 439.40 610.50 L 437.70 608.40 L 436.50 606.10 L 435.80 603.50 L 435.80 600.70 L 436.30 597.40 L 437.60 593.70 L 439.90 589.30 L 443.20 584.20 L 444.70 574.60 L 445.80 570.60 L 447.50 566.50 L 449.00 563.80 L 450.90 561.30 L 453.30 559.00 L 456.00 557.00 L 459.40 555.40 L 463.50 554.10 L 466.50 553.60 L 474.30 553.50 L 479.20 554.00 L 491.70 554.50 L 495.50 555.20 L 499.10 556.50 L 501.30 557.60 L 503.20 559.20 L 504.90 561.10 L 506.00 563.30 L 506.80 566.10 L 507.10 569.70 L 506.80 573.30 L 505.80 577.80 L 503.90 583.50 L 501.20 589.90 L 498.20 595.40 L 495.10 600.30 L 491.80 604.40 L 488.20 608.00 L 484.50 610.90 L 480.60 613.40 L 476.50 615.40 L 472.10 616.80 L 467.40 617.80 L 462.40 618.30 Z" fill="url(#linearGradient-2)" fill-rule="evenodd" group-id="1" id="路径-212备份-4" node-id="49" stroke="none" target-height="64.79999" target-width="71.30002" target-x="435.8" target-y="553.5"></path></g><path d="M 823.70 400.40 L 818.80 394.90 L 815.10 390.10 L 812.60 385.80 L 811.00 382.10 L 810.10 378.80 L 809.80 375.80 L 810.20 373.10 L 811.00 370.70 L 812.40 368.30 L 814.50 366.10 L 817.30 363.90 L 820.90 361.80 L 825.70 359.90 L 832.20 357.80 L 837.90 352.60 L 844.10 348.10 L 847.80 346.20 L 852.00 344.80 L 854.90 344.20 L 858.00 344.00 L 861.30 344.20 L 864.60 344.90 L 868.10 346.20 L 871.90 348.10 L 875.40 350.50 L 879.20 353.80 L 883.40 358.10 L 893.50 367.40 L 896.20 370.70 L 898.40 374.30 L 899.40 376.80 L 899.90 379.50 L 900.00 382.20 L 899.60 384.30 L 897.60 388.60 L 893.80 393.10 L 887.70 397.80 L 883.40 400.40 L 876.50 403.90 L 870.10 406.50 L 864.00 408.30 L 858.30 409.50 L 852.80 410.00 L 847.60 409.90 L 842.60 409.20 L 837.70 407.90 L 832.90 406.00 L 828.30 403.60 L 823.70 400.40 Z" fill="url(#linearGradient-3)" fill-rule="evenodd" id="路径-212备份" node-id="50" stroke="none" target-height="66" target-width="90.20001" target-x="809.8" target-y="344"></path><path d="M 149.50 388.60 L 142.30 380.80 L 136.50 373.60 L 131.90 367.10 L 128.50 361.20 L 126.00 355.80 L 124.30 350.90 L 123.30 346.40 L 123.00 342.30 L 123.30 338.40 L 124.10 334.80 L 125.50 331.40 L 127.50 328.00 L 130.10 324.80 L 133.40 321.70 L 137.50 318.70 L 142.60 315.80 L 148.70 313.00 L 156.00 310.40 L 165.60 307.50 L 174.20 299.40 L 183.50 292.00 L 191.20 287.30 L 199.90 283.50 L 204.70 282.20 L 209.70 281.30 L 217.50 281.10 L 221.60 281.50 L 230.10 283.60 L 234.50 285.30 L 239.10 287.60 L 243.90 290.50 L 248.40 293.70 L 253.10 297.60 L 265.50 310.00 L 276.90 320.00 L 281.10 324.10 L 287.80 331.90 L 291.90 338.70 L 293.40 342.30 L 294.50 346.10 L 295.00 350.00 L 294.60 355.80 L 292.60 362.20 L 291.00 365.20 L 286.10 371.60 L 282.60 375.20 L 274.70 381.50 L 263.30 388.60 L 253.60 393.60 L 244.40 397.70 L 235.60 401.00 L 227.10 403.50 L 219.00 405.30 L 211.20 406.40 L 203.60 406.90 L 196.30 406.70 L 189.20 405.90 L 182.30 404.60 L 175.50 402.70 L 168.90 400.10 L 162.30 396.90 L 155.90 393.10 L 149.50 388.60 Z" fill="url(#linearGradient-4)" fill-rule="evenodd" id="路径-212" node-id="51" stroke="none" target-height="125.79999" target-width="172" target-x="123" target-y="281.1"></path><g node-id="230"><g node-id="236"><path d="M 331.30 513.00 L 701.40 513.00 L 703.30 513.50 L 704.70 514.80 L 731.90 555.50 L 732.50 556.90 L 732.50 558.50 L 731.90 559.90 L 730.80 561.00 L 728.70 561.70 L 295.20 568.30 L 293.70 568.00 L 292.40 567.20 L 291.50 565.90 L 291.20 564.30 L 291.40 563.00 L 292.00 561.90 L 328.10 514.60 L 329.00 513.70 L 331.30 513.00 Z" fill="#f4f7fb" fill-rule="evenodd" group-id="2,8" id="矩形" node-id="54" stroke="none" target-height="55.299988" target-width="441.3" target-x="291.2" target-y="513"></path><path d="M 296.90 555.80 L 729.60 555.80 L 730.70 556.00 L 731.70 556.60 L 732.30 557.60 L 732.60 558.80 L 732.60 570.00 L 732.30 571.20 L 731.70 572.10 L 730.70 572.80 L 729.60 573.00 L 296.90 573.00 L 295.70 572.80 L 294.70 572.10 L 294.10 571.20 L 293.90 570.00 L 293.90 558.80 L 294.10 557.60 L 294.70 556.60 L 295.70 556.00 L 296.90 555.80 Z" fill="url(#linearGradient2)" fill-rule="evenodd" group-id="2,8" id="矩形" node-id="55" stroke="none" target-height="17.200012" target-width="438.69998" target-x="293.9" target-y="555.8"></path></g><path d="M 358.00 427.00 L 382.00 427.00 L 382.00 537.00 L 381.70 538.60 L 380.80 539.80 L 379.60 540.70 L 378.00 541.00 L 362.00 541.00 L 360.40 540.70 L 359.20 539.80 L 358.30 538.60 L 358.00 537.00 L 358.00 427.00 Z" fill="url(#linearGradient3)" fill-rule="evenodd" group-id="2" id="矩形" node-id="56" stroke="none" target-height="114" target-width="24" target-x="358" target-y="427"></path><g node-id="237"><path d="M 331.30 637.00 L 701.40 637.00 L 703.30 637.50 L 704.70 638.80 L 731.90 679.50 L 732.50 680.90 L 732.50 682.50 L 731.90 683.90 L 730.80 685.00 L 728.70 685.70 L 295.20 692.30 L 293.70 692.00 L 292.40 691.20 L 291.50 689.90 L 291.20 688.30 L 291.40 687.00 L 292.00 685.90 L 328.10 638.60 L 330.00 637.20 L 331.30 637.00 Z" fill="#f4f7fb" fill-rule="evenodd" group-id="2,9" id="矩形" node-id="58" stroke="none" target-height="55.299988" target-width="441.3" target-x="291.2" target-y="637"></path><path d="M 296.90 679.80 L 729.60 679.80 L 730.70 680.00 L 731.70 680.60 L 732.30 681.60 L 732.60 682.80 L 732.60 694.00 L 732.30 695.20 L 731.70 696.10 L 730.70 696.80 L 729.60 697.00 L 296.90 697.00 L 295.70 696.80 L 294.70 696.10 L 294.10 695.20 L 293.90 694.00 L 293.90 682.80 L 294.10 681.60 L 294.70 680.60 L 295.70 680.00 L 296.90 679.80 Z" fill="url(#linearGradient4)" fill-rule="evenodd" group-id="2,9" id="矩形" node-id="59" stroke="none" target-height="17.200012" target-width="438.69998" target-x="293.9" target-y="679.8"></path></g><path d="M 358.00 573.00 L 382.00 573.00 L 382.00 656.00 L 381.70 657.60 L 380.80 658.80 L 379.60 659.70 L 378.00 660.00 L 362.00 660.00 L 360.40 659.70 L 359.20 658.80 L 358.30 657.60 L 358.00 656.00 L 358.00 573.00 Z" fill="url(#linearGradient5)" fill-rule="evenodd" group-id="2" id="矩形备份" node-id="60" stroke="none" target-height="87" target-width="24" target-x="358" target-y="573"></path><g node-id="238"><path d="M 331.30 369.00 L 701.40 369.00 L 703.30 369.50 L 704.70 370.80 L 731.90 411.50 L 732.50 412.90 L 732.50 414.50 L 731.90 415.90 L 730.80 417.00 L 728.70 417.70 L 295.20 424.30 L 293.70 424.00 L 292.40 423.20 L 291.50 421.90 L 291.20 420.30 L 291.40 419.00 L 292.00 417.90 L 328.10 370.60 L 330.00 369.20 L 331.30 369.00 Z" fill="#f4f7fb" fill-rule="evenodd" group-id="2,10" id="矩形" node-id="62" stroke="none" target-height="55.299988" target-width="441.3" target-x="291.2" target-y="369"></path><path d="M 296.90 411.80 L 729.60 411.80 L 730.70 412.00 L 731.70 412.60 L 732.30 413.60 L 732.60 414.80 L 732.60 426.00 L 732.30 427.20 L 731.70 428.10 L 730.70 428.80 L 729.60 429.00 L 296.90 429.00 L 295.70 428.80 L 294.70 428.10 L 294.10 427.20 L 293.90 426.00 L 293.90 414.80 L 294.10 413.60 L 294.70 412.60 L 295.70 412.00 L 296.90 411.80 Z" fill="url(#linearGradient-5)" fill-rule="evenodd" group-id="2,10" id="矩形" node-id="63" stroke="none" target-height="17.200012" target-width="438.69998" target-x="293.9" target-y="411.8"></path></g><path d="M 369.00 337.00 L 373.00 337.20 L 376.60 338.50 L 378.10 339.60 L 380.50 342.40 L 381.80 346.00 L 382.00 390.00 L 381.70 391.60 L 380.80 392.80 L 379.60 393.70 L 378.00 394.00 L 362.00 394.00 L 360.40 393.70 L 359.20 392.80 L 358.30 391.60 L 358.00 390.00 L 358.20 346.00 L 359.50 342.40 L 361.90 339.60 L 365.20 337.70 L 369.00 337.00 Z" fill="url(#linearGradient6)" fill-rule="evenodd" group-id="2" id="矩形" node-id="64" stroke="none" target-height="57" target-width="24" target-x="358" target-y="337"></path><g node-id="239"><path d="M 367.00 716.00 L 373.00 716.00 L 375.40 715.70 L 377.50 714.80 L 379.40 713.40 L 380.80 711.50 L 381.70 709.40 L 382.00 707.00 L 382.00 695.00 L 358.00 695.00 L 358.00 707.00 L 358.30 709.40 L 359.20 711.50 L 360.60 713.40 L 362.50 714.80 L 364.60 715.70 L 367.00 716.00 Z" fill="#d2d5e0" fill-rule="evenodd" group-id="2,11" id="矩形备份-2" node-id="65" stroke="none" target-height="21" target-width="24" target-x="358" target-y="695"></path></g><path d="M 633.00 427.00 L 657.00 427.00 L 657.00 537.00 L 656.70 538.60 L 655.80 539.80 L 654.60 540.70 L 653.00 541.00 L 637.00 541.00 L 635.40 540.70 L 634.20 539.80 L 633.30 538.60 L 633.00 537.00 L 633.00 427.00 Z" fill="url(#linearGradient-6)" fill-rule="evenodd" group-id="2" id="矩形" node-id="66" stroke="none" target-height="114" target-width="24" target-x="633" target-y="427"></path><path d="M 633.00 573.00 L 657.00 573.00 L 657.00 656.00 L 656.70 657.60 L 655.80 658.80 L 654.60 659.70 L 653.00 660.00 L 637.00 660.00 L 635.40 659.70 L 634.20 658.80 L 633.30 657.60 L 633.00 656.00 L 633.00 573.00 Z" fill="url(#linearGradient-7)" fill-rule="evenodd" group-id="2" id="矩形备份" node-id="67" stroke="none" target-height="87" target-width="24" target-x="633" target-y="573"></path><path d="M 644.00 337.00 L 648.00 337.20 L 651.60 338.50 L 653.10 339.60 L 655.50 342.40 L 656.80 346.00 L 657.00 390.00 L 656.70 391.60 L 655.80 392.80 L 654.60 393.70 L 653.00 394.00 L 637.00 394.00 L 635.40 393.70 L 634.20 392.80 L 633.30 391.60 L 633.00 390.00 L 633.20 346.00 L 634.50 342.40 L 636.90 339.60 L 640.20 337.70 L 644.00 337.00 Z" fill="url(#linearGradient-8)" fill-rule="evenodd" group-id="2" id="矩形" node-id="68" stroke="none" target-height="57" target-width="24" target-x="633" target-y="337"></path><g node-id="240"><path d="M 642.00 716.00 L 648.00 716.00 L 650.40 715.70 L 652.50 714.80 L 654.40 713.40 L 655.80 711.50 L 656.70 709.40 L 657.00 707.00 L 657.00 695.00 L 633.00 695.00 L 633.00 707.00 L 633.30 709.40 L 634.20 711.50 L 635.60 713.40 L 637.50 714.80 L 639.60 715.70 L 642.00 716.00 Z" fill="#d2d5e0" fill-rule="evenodd" group-id="2,12" id="矩形备份-2" node-id="69" stroke="none" target-height="21" target-width="24" target-x="633" target-y="695"></path></g></g><g node-id="231"><path d="M 209.00 482.00 L 242.00 494.50 L 242.00 596.00 L 209.00 572.30 Z" fill="url(#linearGradient-9)" fill-rule="evenodd" group-id="3" id="路径-250" node-id="71" stroke="none" target-height="114" target-width="33" target-x="209" target-y="482"></path><path d="M 242.00 494.90 L 263.00 482.00 L 263.00 567.40 L 242.00 588.00 Z" fill="url(#linearGradient-10)" fill-rule="evenodd" group-id="3" id="路径-251" node-id="72" stroke="none" target-height="106" target-width="21" target-x="242" target-y="482"></path><path d="M 209.00 481.80 L 241.40 494.00 L 263.00 481.80 L 236.00 472.00 Z" fill="#f3f6fa" fill-rule="evenodd" group-id="3" id="路径-252" node-id="73" stroke="none" target-height="22" target-width="54" target-x="209" target-y="472"></path></g><g node-id="232"><path d="M 736.00 635.00 L 758.00 643.10 L 758.00 709.00 L 736.00 693.60 Z" fill="url(#linearGradient-11)" fill-rule="evenodd" group-id="4" id="路径-250" node-id="75" stroke="none" target-height="74" target-width="22" target-x="736" target-y="635"></path><path d="M 757.00 643.40 L 771.00 635.00 L 771.00 690.60 L 757.00 704.00 Z" fill="url(#linearGradient-12)" fill-rule="evenodd" group-id="4" id="路径-251" node-id="76" stroke="none" target-height="69" target-width="14" target-x="757" target-y="635"></path><path d="M 736.00 634.20 L 757.00 642.00 L 771.00 634.20 L 753.50 628.00 Z" fill="#f3f6fa" fill-rule="evenodd" group-id="4" id="路径-252" node-id="77" stroke="none" target-height="14" target-width="35" target-x="736" target-y="628"></path></g><g node-id="233"><path d="M 359.50 496.20 L 366.40 496.50 L 372.60 496.30 L 378.00 495.70 L 382.90 494.50 L 387.20 493.00 L 391.10 491.10 L 394.50 488.70 L 397.50 486.00 L 432.40 505.60 L 444.90 511.90 L 455.90 516.40 L 459.30 517.50 L 463.90 518.20 L 460.50 523.20 L 451.60 533.90 L 432.10 556.80 L 419.50 552.80 L 409.10 549.00 L 400.70 545.40 L 394.00 542.00 L 388.80 538.80 L 384.70 535.80 L 381.00 532.30 L 377.10 527.80 L 373.00 522.10 L 368.70 515.10 L 364.20 506.50 L 359.50 496.20 Z" fill="#f4f7fb" fill-rule="evenodd" group-id="5" id="路径-312" node-id="79" stroke="none" target-height="70.79999" target-width="104.399994" target-x="359.5" target-y="486"></path><g node-id="241"><path d="M 391.70 509.00 L 408.70 499.00" fill="none" group-id="5,13" id="路径-313" node-id="80" stroke="#d3d6e1" stroke-linecap="butt" stroke-opacity="0.4196414" stroke-width="3" target-height="10" target-width="17" target-x="391.7" target-y="499"></path></g><g node-id="242"><path d="M 396.70 515.00 L 413.70 505.00" fill="none" group-id="5,14" id="路径-313备份" node-id="81" stroke="#d3d6e1" stroke-linecap="butt" stroke-opacity="0.4196414" stroke-width="3" target-height="10" target-width="17" target-x="396.7" target-y="505"></path></g><g node-id="243"><path d="M 411.70 523.00 L 428.70 513.00" fill="none" group-id="5,15" id="路径-313备份-3" node-id="82" stroke="#d3d6e1" stroke-linecap="butt" stroke-opacity="0.4196414" stroke-width="3" target-height="10" target-width="17" target-x="411.7" target-y="513"></path></g><g node-id="244"><path d="M 401.50 521.50 L 414.70 513.00" fill="none" group-id="5,16" id="路径-313备份-2" node-id="83" stroke="#d3d6e1" stroke-linecap="butt" stroke-opacity="0.4196414" stroke-width="3" target-height="8.5" target-width="13.200012" target-x="401.5" target-y="513"></path></g><g node-id="245"><path d="M 411.50 533.50 L 424.70 525.00" fill="none" group-id="5,17" id="路径-313备份-4" node-id="84" stroke="#d3d6e1" stroke-linecap="butt" stroke-opacity="0.4196414" stroke-width="3" target-height="8.5" target-width="13.200012" target-x="411.5" target-y="525"></path></g><path d="M 378.50 516.00 L 386.00 526.00 L 396.30 520.40 L 389.00 510.90 Z" fill="#e6e9ef" fill-rule="evenodd" group-id="5" id="路径-314" node-id="85" stroke="none" target-height="15.100006" target-width="17.799988" target-x="378.5" target-y="510.9"></path></g><g node-id="234"><g node-id="246"><path d="M 498.50 660.60 L 500.80 662.00 L 504.90 659.50 L 507.70 657.20 L 509.40 655.20 L 509.80 654.30 L 510.10 652.70 L 509.90 652.00 L 509.40 651.50 L 508.50 651.50 L 506.70 652.00 L 504.60 653.00 L 501.10 655.20 L 500.10 656.80 L 498.50 660.60 Z" fill="#373c60" fill-rule="evenodd" group-id="6,18" id="路径-231" node-id="87" stroke="none" target-height="10.5" target-width="11.600006" target-x="498.5" target-y="651.5"></path></g><g node-id="247"><path d="M 520.00 656.10 L 513.90 659.80 L 510.10 662.80 L 509.90 663.30 L 510.30 664.10 L 511.00 664.80 L 512.40 665.20 L 514.80 664.40 L 516.40 663.20 L 521.20 658.40 L 522.00 657.00 L 522.00 656.30 L 521.50 656.00 L 520.00 656.10 Z" fill="#373c60" fill-rule="evenodd" group-id="6,19" id="路径-232" node-id="88" stroke="none" target-height="9.200012" target-width="12.100006" target-x="509.9" target-y="656"></path></g><path d="M 487.00 563.90 L 493.00 563.90 L 491.60 594.30 L 489.10 591.30 Z" fill="#fabdaf" fill-rule="evenodd" group-id="6" id="路径-246" node-id="89" stroke="none" target-height="30.399963" target-width="6" target-x="487" target-y="563.9"></path><path d="M 491.10 599.10 L 494.00 611.00 L 495.50 619.00 L 495.90 624.00 L 496.00 631.10 L 498.50 660.60 L 499.50 661.80 L 500.00 662.00 L 500.80 662.00 L 501.80 661.60 L 504.10 659.90 L 504.40 644.10 L 505.10 632.80 L 506.10 624.90 L 507.10 619.80 L 509.30 614.00 L 509.90 610.70 L 510.30 606.80 L 510.20 602.00 L 509.50 596.30 L 508.30 589.40 L 491.10 599.10 Z" fill="#6d747f" fill-rule="evenodd" group-id="6" id="路径-244" node-id="90" stroke="none" target-height="72.599976" target-width="19.199982" target-x="491.1" target-y="589.4"></path><path d="M 504.70 596.40 L 521.50 602.10 L 520.70 626.40 L 519.80 642.70 L 518.90 652.80 L 518.00 658.70 L 517.30 661.70 L 516.60 662.90 L 515.10 664.50 L 513.70 665.20 L 512.50 665.30 L 511.20 665.00 L 510.00 664.00 L 508.40 623.20 L 506.40 617.40 L 504.70 610.50 L 504.50 605.50 L 504.70 596.40 Z" fill="#747474" fill-rule="evenodd" group-id="6" id="路径-245" node-id="91" stroke="none" target-height="68.89996" target-width="17" target-x="504.5" target-y="596.4"></path><path d="M 491.10 601.70 L 500.30 603.80 L 507.30 604.80 L 512.40 605.00 L 516.20 604.70 L 518.80 604.00 L 520.60 603.00 L 521.80 601.70 L 521.90 596.80 L 521.40 589.50 L 520.20 579.10 L 518.00 564.90 L 527.10 557.20 L 521.80 548.10 L 512.60 548.40 L 507.40 549.00 L 505.60 548.80 L 503.10 548.10 L 498.30 548.30 L 495.70 549.80 L 491.70 553.90 L 488.50 559.40 L 487.40 562.20 L 487.10 564.90 L 488.30 565.90 L 489.30 566.10 L 490.20 565.80 L 491.10 564.90 L 491.10 601.70 Z" fill="#5b5b5b" fill-rule="evenodd" group-id="6" id="路径-243" node-id="92" stroke="none" target-height="56.900024" target-width="39.99997" target-x="487.1" target-y="548.1"></path><path d="M 498.60 534.40 L 516.50 534.40 L 515.70 539.00 L 514.90 541.40 L 514.20 542.50 L 512.70 543.00 L 512.30 543.70 L 512.10 545.30 L 512.60 548.40 L 508.00 549.20 L 503.50 548.40 L 503.50 542.70 L 499.90 537.50 L 498.60 535.30 L 498.60 534.40 Z" fill="#fabdaf" fill-rule="evenodd" group-id="6" id="路径-248" node-id="93" stroke="none" target-height="14.799988" target-width="17.899994" target-x="498.6" target-y="534.4"></path><path d="M 498.90 535.50 L 503.50 535.90 L 518.10 534.40 L 526.80 534.40 L 525.50 532.30 L 520.10 531.10 L 517.40 528.50 L 514.50 526.50 L 511.30 525.10 L 507.70 524.10 L 505.90 524.00 L 504.30 524.40 L 502.80 525.20 L 500.80 526.80 L 499.30 528.90 L 498.30 531.10 L 497.90 533.10 L 497.90 534.30 L 498.90 535.50 Z" fill="#5b5b5b" fill-rule="evenodd" group-id="6" id="路径-249" node-id="94" stroke="none" target-height="11.900024" target-width="28.899994" target-x="497.9" target-y="524"></path><path d="M 522.60 549.40 L 523.60 548.40 L 524.00 547.30 L 523.90 546.30 L 523.40 545.10 L 522.10 543.70 L 519.90 542.00 L 509.10 536.00 L 506.40 534.20 L 505.40 533.00 L 505.30 532.50 L 505.70 532.10 L 507.20 531.90 L 510.10 532.20 L 516.20 533.40 L 521.00 534.70 L 524.90 536.20 L 528.10 538.00 L 530.60 539.90 L 532.70 542.00 L 534.20 544.20 L 535.30 546.70 L 535.90 549.40 L 526.60 556.50 L 522.60 549.40 Z" fill="#fabdaf" fill-rule="evenodd" group-id="6" id="路径-247" node-id="95" stroke="none" target-height="24.599976" target-width="30.600037" target-x="505.3" target-y="531.9"></path></g><g node-id="235"><g node-id="248"><path d="M 535.30 465.50 L 532.20 466.20 L 530.20 468.10 L 529.70 469.50 L 529.50 471.20 L 532.20 471.20 L 532.80 468.90 L 533.70 468.10 L 535.10 467.90 L 536.20 468.10 L 537.00 468.60 L 537.50 469.30 L 537.50 471.30 L 533.90 475.50 L 533.50 478.20 L 536.20 478.20 L 536.30 477.00 L 537.00 475.70 L 539.60 473.20 L 540.30 471.90 L 540.50 470.30 L 540.30 468.90 L 539.10 466.80 L 536.80 465.70 L 535.30 465.50 Z M 534.80 479.40 L 533.50 479.90 L 533.00 481.20 L 533.50 482.50 L 534.80 483.00 L 536.20 482.50 L 536.70 481.20 L 536.20 479.90 L 534.80 479.40 Z" fill="#1d90a2" fill-rule="nonzero" group-id="7,20" id="形状" node-id="98" stroke="none" target-height="17.5" target-width="11" target-x="529.5" target-y="465.5"></path></g><path d="M 525.20 485.40 L 523.60 485.60 L 522.40 486.40 L 521.60 487.50 L 521.30 489.10 L 523.20 489.10 L 523.60 487.60 L 524.10 487.10 L 525.80 487.00 L 526.70 487.90 L 526.70 489.20 L 524.30 492.00 L 524.00 493.80 L 525.80 493.80 L 526.10 492.50 L 528.10 490.50 L 528.70 488.50 L 528.40 487.20 L 527.70 486.20 L 526.60 485.60 L 525.20 485.40 Z M 524.90 494.60 L 524.00 494.90 L 523.70 495.80 L 524.00 496.60 L 524.90 497.00 L 525.80 496.70 L 526.10 495.80 L 525.80 494.90 L 524.90 494.60 Z" fill="#1d90a2" fill-rule="nonzero" group-id="7,21" id="形状" node-id="100" stroke="none" target-height="11.600006" target-width="7.4000244" target-x="521.3" target-y="485.4"></path></g></svg>